<svg xmlns="http://www.w3.org/2000/svg" xmlns:xlink="http://www.w3.org/1999/xlink" contentStyleType="text/css" height="634px" preserveAspectRatio="none" style="width:934px;height:634px;background:#FFFFFF;" version="1.1" viewBox="0 0 934 634" width="934px" zoomAndPan="magnify"><defs/><g><path d="M508.7749,10 L508.7749,18.4744 L488.7749,22.4744 L508.7749,26.4744 L508.7749,34.9487 A0,0 0 0 0 508.7749,34.9487 L669.9565,34.9487 A0,0 0 0 0 669.9565,34.9487 L669.9565,20 L659.9565,10 L508.7749,10 A0,0 0 0 0 508.7749,10 " fill="#FEFFDD" style="stroke:#181818;stroke-width:0.5;"/><path d="M659.9565,10 L659.9565,20 L669.9565,20 L659.9565,10 " fill="#FEFFDD" style="stroke:#181818;stroke-width:0.5;"/><text fill="#000000" font-family="sans-serif" font-size="13" lengthAdjust="spacing" textLength="140.1816" x="514.7749" y="27.1938">Importer la configuration</text><ellipse cx="478.7749" cy="22.4744" fill="#222222" rx="10" ry="10" style="stroke:#222222;stroke-width:1.0;"/><polygon fill="#F1F1F1" points="71.5056,54.9487,244.5139,54.9487,256.5139,67.5977,244.5139,80.2466,71.5056,80.2466,59.5056,67.5977,71.5056,54.9487" style="stroke:#181818;stroke-width:0.5;"/><text fill="#000000" font-family="sans-serif" font-size="11" lengthAdjust="spacing" textLength="30.5723" x="162.0098" y="90.5645">&#201;chec</text><text fill="#000000" font-family="sans-serif" font-size="11" font-weight="bold" lengthAdjust="spacing" textLength="55.0107" x="71.5056" y="65.2666">Supprimer</text><text fill="#000000" font-family="sans-serif" font-size="11" lengthAdjust="spacing" textLength="114.9414" x="129.5725" y="65.2666">les fichiers trop anciens</text><text fill="#000000" font-family="sans-serif" font-size="11" lengthAdjust="spacing" textLength="110.9399" x="71.5056" y="77.9155">du serveur d'archivage</text><rect fill="#F1F1F1" height="47.5977" rx="12.5" ry="12.5" style="stroke:#181818;stroke-width:0.5;" width="185.9668" x="65.0264" y="112.7134"/><text fill="#000000" font-family="sans-serif" font-size="12" lengthAdjust="spacing" textLength="165.9668" x="75.0264" y="133.9692">combo 1 "Impossible d'acc&#233;der</text><text fill="#000000" font-family="sans-serif" font-size="12" lengthAdjust="spacing" textLength="125.2852" x="75.0264" y="147.7681">au serveur d'archivage"</text><ellipse cx="158.0098" cy="190.96" fill="none" rx="10" ry="10" style="stroke:#222222;stroke-width:1.5;"/><line style="stroke:#222222;stroke-width:2.5;" x1="151.8226" x2="164.1969" y1="184.7728" y2="197.1471"/><line style="stroke:#222222;stroke-width:2.5;" x1="164.1969" x2="151.8226" y1="184.7728" y2="197.1471"/><polygon fill="#F1F1F1" points="316.7854,55.5977,422.2092,55.5977,434.2092,67.5977,422.2092,79.5977,316.7854,79.5977,304.7854,67.5977,316.7854,55.5977" style="stroke:#181818;stroke-width:0.5;"/><text fill="#000000" font-family="sans-serif" font-size="11" lengthAdjust="spacing" textLength="30.5723" x="373.4973" y="89.9155">&#201;chec</text><text fill="#000000" font-family="sans-serif" font-size="11" font-weight="bold" lengthAdjust="spacing" textLength="62.3638" x="316.7854" y="71.5911">T&#233;l&#233;charger</text><text fill="#000000" font-family="sans-serif" font-size="11" lengthAdjust="spacing" textLength="40.0039" x="382.2053" y="71.5911">l'archive</text><rect fill="#F1F1F1" height="47.5977" rx="12.5" ry="12.5" style="stroke:#181818;stroke-width:0.5;" width="185.9668" x="276.5139" y="112.0645"/><text fill="#000000" font-family="sans-serif" font-size="12" lengthAdjust="spacing" textLength="165.9668" x="286.5139" y="133.3203">combo 1 "Impossible d'acc&#233;der</text><text fill="#000000" font-family="sans-serif" font-size="12" lengthAdjust="spacing" textLength="57.9082" x="286.5139" y="147.1191">&#224; l'archive"</text><ellipse cx="369.4973" cy="190.311" fill="none" rx="10" ry="10" style="stroke:#222222;stroke-width:1.5;"/><line style="stroke:#222222;stroke-width:2.5;" x1="363.3101" x2="375.6845" y1="184.1239" y2="196.4982"/><line style="stroke:#222222;stroke-width:2.5;" x1="375.6845" x2="363.3101" y1="184.1239" y2="196.4982"/><polygon fill="#F1F1F1" points="496.5645,55.5977,616.0552,55.5977,628.0552,67.5977,616.0552,79.5977,496.5645,79.5977,484.5645,67.5977,496.5645,55.5977" style="stroke:#181818;stroke-width:0.5;"/><text fill="#000000" font-family="sans-serif" font-size="11" lengthAdjust="spacing" textLength="30.5723" x="560.3098" y="89.9155">&#201;chec</text><text fill="#000000" font-family="sans-serif" font-size="11" font-weight="bold" lengthAdjust="spacing" textLength="76.4307" x="496.5645" y="71.5911">D&#233;compresser</text><text fill="#000000" font-family="sans-serif" font-size="11" lengthAdjust="spacing" textLength="40.0039" x="576.0513" y="71.5911">l'archive</text><rect fill="#F1F1F1" height="47.5977" rx="12.5" ry="12.5" style="stroke:#181818;stroke-width:0.5;" width="147.6582" x="482.4807" y="112.0645"/><text fill="#000000" font-family="sans-serif" font-size="12" lengthAdjust="spacing" textLength="127.6582" x="492.4807" y="133.3203">combo 1 "Impossible de</text><text fill="#000000" font-family="sans-serif" font-size="12" lengthAdjust="spacing" textLength="127.2656" x="492.4807" y="147.1191">d&#233;compresser l'archive"</text><ellipse cx="556.3098" cy="190.311" fill="none" rx="10" ry="10" style="stroke:#222222;stroke-width:1.5;"/><line style="stroke:#222222;stroke-width:2.5;" x1="550.1226" x2="562.497" y1="184.1239" y2="196.4982"/><line style="stroke:#222222;stroke-width:2.5;" x1="562.497" x2="550.1226" y1="184.1239" y2="196.4982"/><polygon fill="#F1F1F1" points="662.1389,55.5977,836.0442,55.5977,848.0442,67.5977,836.0442,79.5977,662.1389,79.5977,650.1389,67.5977,662.1389,55.5977" style="stroke:#181818;stroke-width:0.5;"/><text fill="#000000" font-family="sans-serif" font-size="11" lengthAdjust="spacing" textLength="20.1792" x="753.0916" y="89.9155">Non</text><text fill="#000000" font-family="sans-serif" font-size="11" lengthAdjust="spacing" textLength="173.9053" x="662.1389" y="71.5911">Un seul fichier SQL dans l'archive ?</text><rect fill="#F1F1F1" height="47.5977" rx="12.5" ry="12.5" style="stroke:#181818;stroke-width:0.5;" width="174.9922" x="661.5955" y="112.0645"/><text fill="#000000" font-family="sans-serif" font-size="12" lengthAdjust="spacing" textLength="154.9922" x="671.5955" y="133.3203">combo 1 "Mauvaise structure</text><text fill="#000000" font-family="sans-serif" font-size="12" lengthAdjust="spacing" textLength="51.9082" x="671.5955" y="147.1191">d'archive"</text><ellipse cx="749.0916" cy="190.311" fill="none" rx="10" ry="10" style="stroke:#222222;stroke-width:1.5;"/><line style="stroke:#222222;stroke-width:2.5;" x1="742.9044" x2="755.2787" y1="184.1239" y2="196.4982"/><line style="stroke:#222222;stroke-width:2.5;" x1="755.2787" x2="742.9044" y1="184.1239" y2="196.4982"/><rect fill="#F1F1F1" height="33.7988" rx="12.5" ry="12.5" style="stroke:#181818;stroke-width:0.5;" width="141.002" x="408.2739" y="220.96"/><text fill="#000000" font-family="sans-serif" font-size="12" lengthAdjust="spacing" textLength="121.002" x="418.2739" y="242.2158">Supprimer l'archive zip</text><polygon fill="#F1F1F1" points="32,274.7588,231.3159,274.7588,243.3159,286.7588,231.3159,298.7588,32,298.7588,20,286.7588,32,274.7588" style="stroke:#181818;stroke-width:0.5;"/><text fill="#000000" font-family="sans-serif" font-size="11" lengthAdjust="spacing" textLength="30.5723" x="135.658" y="309.0767">&#201;chec</text><text fill="#000000" font-family="sans-serif" font-size="11" font-weight="bold" lengthAdjust="spacing" textLength="43.4092" x="32" y="290.7522">Calculer</text><text fill="#000000" font-family="sans-serif" font-size="11" lengthAdjust="spacing" textLength="152.8506" x="78.4653" y="290.7522">la somme de contr&#244;le du fichier</text><rect fill="#F1F1F1" height="47.5977" rx="12.5" ry="12.5" style="stroke:#181818;stroke-width:0.5;" width="183.6641" x="39.8259" y="331.2256"/><text fill="#000000" font-family="sans-serif" font-size="12" lengthAdjust="spacing" textLength="127.6582" x="49.8259" y="352.4814">combo 1 "Impossible de</text><text fill="#000000" font-family="sans-serif" font-size="12" lengthAdjust="spacing" textLength="163.6641" x="49.8259" y="366.2803">calculer la somme de contr&#244;le"</text><ellipse cx="131.658" cy="409.4722" fill="none" rx="10" ry="10" style="stroke:#222222;stroke-width:1.5;"/><line style="stroke:#222222;stroke-width:2.5;" x1="125.4708" x2="137.8451" y1="403.285" y2="415.6594"/><line style="stroke:#222222;stroke-width:2.5;" x1="137.8451" x2="125.4708" y1="403.285" y2="415.6594"/><polygon fill="#F1F1F1" points="299.7231,274.1099,448.9106,274.1099,460.9106,286.7588,448.9106,299.4077,299.7231,299.4077,287.7231,286.7588,299.7231,274.1099" style="stroke:#181818;stroke-width:0.5;"/><text fill="#000000" font-family="sans-serif" font-size="11" lengthAdjust="spacing" textLength="17.1177" x="378.3169" y="309.7256">Oui</text><text fill="#000000" font-family="sans-serif" font-size="11" lengthAdjust="spacing" textLength="126.5645" x="299.7231" y="284.4277">La somme de contr&#244;le est</text><text fill="#000000" font-family="sans-serif" font-size="11" lengthAdjust="spacing" textLength="149.1875" x="299.7231" y="297.0767">la m&#234;me que pr&#233;c&#233;demment ?</text><rect fill="#F1F1F1" height="47.5977" rx="12.5" ry="12.5" style="stroke:#181818;stroke-width:0.5;" width="222.002" x="263.3159" y="331.8745"/><text fill="#000000" font-family="sans-serif" font-size="12" lengthAdjust="spacing" textLength="121.6523" x="273.3159" y="353.1304">combo 1 "Le fichier est</text><text fill="#000000" font-family="sans-serif" font-size="12" lengthAdjust="spacing" textLength="202.002" x="273.3159" y="366.9292">le m&#234;me qu'&#224; la derni&#232;re sauvegarde"</text><ellipse cx="374.3169" cy="410.1211" fill="none" rx="10" ry="10" style="stroke:#222222;stroke-width:1.5;"/><line style="stroke:#222222;stroke-width:2.5;" x1="368.1297" x2="380.5041" y1="403.9339" y2="416.3083"/><line style="stroke:#222222;stroke-width:2.5;" x1="380.5041" x2="368.1297" y1="403.9339" y2="416.3083"/><polygon fill="#F1F1F1" points="537.4971,274.7588,669.583,274.7588,681.583,286.7588,669.583,298.7588,537.4971,298.7588,525.4971,286.7588,537.4971,274.7588" style="stroke:#181818;stroke-width:0.5;"/><text fill="#000000" font-family="sans-serif" font-size="11" lengthAdjust="spacing" textLength="30.5723" x="607.54" y="309.0767">&#201;chec</text><text fill="#000000" font-family="sans-serif" font-size="11" font-weight="bold" lengthAdjust="spacing" textLength="44.6338" x="537.4971" y="290.7522">Archiver</text><text fill="#000000" font-family="sans-serif" font-size="11" lengthAdjust="spacing" textLength="84.396" x="585.187" y="290.7522">le nouveau dump</text><text fill="#000000" font-family="sans-serif" font-size="11" lengthAdjust="spacing" textLength="20.1792" x="505.3179" y="284.4277">Non</text><rect fill="#F1F1F1" height="47.5977" rx="12.5" ry="12.5" style="stroke:#181818;stroke-width:0.5;" width="130.9766" x="538.0518" y="331.2256"/><text fill="#000000" font-family="sans-serif" font-size="12" lengthAdjust="spacing" textLength="110.9766" x="548.0518" y="352.4814">combo 1 "Impossible</text><text fill="#000000" font-family="sans-serif" font-size="12" lengthAdjust="spacing" textLength="101.9297" x="548.0518" y="366.2803">d'archiver le dump"</text><ellipse cx="603.54" cy="409.4722" fill="none" rx="10" ry="10" style="stroke:#222222;stroke-width:1.5;"/><line style="stroke:#222222;stroke-width:2.5;" x1="597.3529" x2="609.7272" y1="403.285" y2="415.6594"/><line style="stroke:#222222;stroke-width:2.5;" x1="609.7272" x2="597.3529" y1="403.285" y2="415.6594"/><polygon fill="#F1F1F1" points="731.8992,274.1099,857.2336,274.1099,869.2336,286.7588,857.2336,299.4077,731.8992,299.4077,719.8992,286.7588,731.8992,274.1099" style="stroke:#181818;stroke-width:0.5;"/><text fill="#000000" font-family="sans-serif" font-size="11" lengthAdjust="spacing" textLength="30.5723" x="798.5664" y="309.7256">&#201;chec</text><text fill="#000000" font-family="sans-serif" font-size="11" font-weight="bold" lengthAdjust="spacing" textLength="34.8369" x="731.8992" y="284.4277">Copier</text><text fill="#000000" font-family="sans-serif" font-size="11" lengthAdjust="spacing" textLength="87.4414" x="769.7922" y="284.4277">la sauvegarde sur</text><text fill="#000000" font-family="sans-serif" font-size="11" lengthAdjust="spacing" textLength="107.2661" x="731.8992" y="297.0767">le serveur d'archivage</text><rect fill="#F1F1F1" height="47.5977" rx="12.5" ry="12.5" style="stroke:#181818;stroke-width:0.5;" width="185.9668" x="701.583" y="331.8745"/><text fill="#000000" font-family="sans-serif" font-size="12" lengthAdjust="spacing" textLength="165.9668" x="711.583" y="353.1304">combo 1 "Impossible d'acc&#233;der</text><text fill="#000000" font-family="sans-serif" font-size="12" lengthAdjust="spacing" textLength="125.2852" x="711.583" y="366.9292">au serveur d'archivage"</text><ellipse cx="794.5664" cy="410.1211" fill="none" rx="10" ry="10" style="stroke:#222222;stroke-width:1.5;"/><line style="stroke:#222222;stroke-width:2.5;" x1="788.3792" x2="800.7536" y1="403.9339" y2="416.3083"/><line style="stroke:#222222;stroke-width:2.5;" x1="800.7536" x2="788.3792" y1="403.9339" y2="416.3083"/><rect fill="#F1F1F1" height="33.7988" rx="12.5" ry="12.5" style="stroke:#181818;stroke-width:0.5;" width="157.0156" x="400.2671" y="440.1211"/><text fill="#000000" font-family="sans-serif" font-size="12" lengthAdjust="spacing" textLength="137.0156" x="410.2671" y="461.377">Supprimer l'archive locale</text><rect fill="#F1F1F1" height="33.7988" rx="12.5" ry="12.5" style="stroke:#181818;stroke-width:0.5;" width="263.4629" x="347.0435" y="493.9199"/><text fill="#000000" font-family="sans-serif" font-size="12" lengthAdjust="spacing" textLength="243.4629" x="357.0435" y="515.1758">Actualiser la somme de contr&#244;le sauvegard&#233;e</text><rect fill="#F1F1F1" height="33.7988" rx="12.5" ry="12.5" style="stroke:#181818;stroke-width:0.5;" width="170.0645" x="393.7427" y="547.7188"/><text fill="#000000" font-family="sans-serif" font-size="12" lengthAdjust="spacing" textLength="150.0645" x="403.7427" y="568.9746">combo 0 $currentChecksum</text><ellipse cx="478.7749" cy="612.5176" fill="none" rx="11" ry="11" style="stroke:#222222;stroke-width:1.0;"/><ellipse cx="478.7749" cy="612.5176" fill="#222222" rx="6" ry="6" style="stroke:#222222;stroke-width:1.0;"/><line style="stroke:#181818;stroke-width:1.0;" x1="158.0098" x2="158.0098" y1="160.311" y2="180.96"/><polygon fill="#181818" points="154.0098,170.96,158.0098,180.96,162.0098,170.96,158.0098,174.96" style="stroke:#181818;stroke-width:1.0;"/><line style="stroke:#181818;stroke-width:1.0;" x1="369.4973" x2="369.4973" y1="159.6621" y2="180.311"/><polygon fill="#181818" points="365.4973,170.311,369.4973,180.311,373.4973,170.311,369.4973,174.311" style="stroke:#181818;stroke-width:1.0;"/><line style="stroke:#181818;stroke-width:1.0;" x1="556.3098" x2="556.3098" y1="159.6621" y2="180.311"/><polygon fill="#181818" points="552.3098,170.311,556.3098,180.311,560.3098,170.311,556.3098,174.311" style="stroke:#181818;stroke-width:1.0;"/><line style="stroke:#181818;stroke-width:1.0;" x1="749.0916" x2="749.0916" y1="159.6621" y2="180.311"/><polygon fill="#181818" points="745.0916,170.311,749.0916,180.311,753.0916,170.311,749.0916,174.311" style="stroke:#181818;stroke-width:1.0;"/><line style="stroke:#181818;stroke-width:1.0;" x1="158.0098" x2="158.0098" y1="80.2466" y2="112.7134"/><polygon fill="#181818" points="154.0098,102.7134,158.0098,112.7134,162.0098,102.7134,158.0098,106.7134" style="stroke:#181818;stroke-width:1.0;"/><line style="stroke:#181818;stroke-width:1.0;" x1="369.4973" x2="369.4973" y1="79.5977" y2="112.0645"/><polygon fill="#181818" points="365.4973,102.0645,369.4973,112.0645,373.4973,102.0645,369.4973,106.0645" style="stroke:#181818;stroke-width:1.0;"/><line style="stroke:#181818;stroke-width:1.0;" x1="556.3098" x2="556.3098" y1="79.5977" y2="112.0645"/><polygon fill="#181818" points="552.3098,102.0645,556.3098,112.0645,560.3098,102.0645,556.3098,106.0645" style="stroke:#181818;stroke-width:1.0;"/><line style="stroke:#181818;stroke-width:1.0;" x1="749.0916" x2="749.0916" y1="79.5977" y2="112.0645"/><polygon fill="#181818" points="745.0916,102.0645,749.0916,112.0645,753.0916,102.0645,749.0916,106.0645" style="stroke:#181818;stroke-width:1.0;"/><line style="stroke:#181818;stroke-width:1.0;" x1="256.5139" x2="304.7854" y1="67.5977" y2="67.5977"/><polygon fill="#181818" points="294.7854,63.5977,304.7854,67.5977,294.7854,71.5977,298.7854,67.5977" style="stroke:#181818;stroke-width:1.0;"/><line style="stroke:#181818;stroke-width:1.0;" x1="434.2092" x2="484.5645" y1="67.5977" y2="67.5977"/><polygon fill="#181818" points="474.5645,63.5977,484.5645,67.5977,474.5645,71.5977,478.5645,67.5977" style="stroke:#181818;stroke-width:1.0;"/><line style="stroke:#181818;stroke-width:1.0;" x1="628.0552" x2="650.1389" y1="67.5977" y2="67.5977"/><polygon fill="#181818" points="640.1389,63.5977,650.1389,67.5977,640.1389,71.5977,644.1389,67.5977" style="stroke:#181818;stroke-width:1.0;"/><line style="stroke:#181818;stroke-width:1.0;" x1="478.7749" x2="478.7749" y1="32.4744" y2="39.9487"/><line style="stroke:#181818;stroke-width:1.0;" x1="478.7749" x2="158.0098" y1="39.9487" y2="39.9487"/><line style="stroke:#181818;stroke-width:1.0;" x1="158.0098" x2="158.0098" y1="39.9487" y2="54.9487"/><polygon fill="#181818" points="154.0098,44.9487,158.0098,54.9487,162.0098,44.9487,158.0098,48.9487" style="stroke:#181818;stroke-width:1.0;"/><line style="stroke:#181818;stroke-width:1.0;" x1="848.0442" x2="883.0442" y1="67.5977" y2="67.5977"/><line style="stroke:#181818;stroke-width:1.0;" x1="883.0442" x2="883.0442" y1="67.5977" y2="205.96"/><line style="stroke:#181818;stroke-width:1.0;" x1="883.0442" x2="478.7749" y1="205.96" y2="205.96"/><line style="stroke:#181818;stroke-width:1.0;" x1="478.7749" x2="478.7749" y1="205.96" y2="220.96"/><polygon fill="#181818" points="474.7749,210.96,478.7749,220.96,482.7749,210.96,478.7749,214.96" style="stroke:#181818;stroke-width:1.0;"/><line style="stroke:#181818;stroke-width:1.0;" x1="131.658" x2="131.658" y1="378.8232" y2="399.4722"/><polygon fill="#181818" points="127.658,389.4722,131.658,399.4722,135.658,389.4722,131.658,393.4722" style="stroke:#181818;stroke-width:1.0;"/><line style="stroke:#181818;stroke-width:1.0;" x1="374.3169" x2="374.3169" y1="379.4722" y2="400.1211"/><polygon fill="#181818" points="370.3169,390.1211,374.3169,400.1211,378.3169,390.1211,374.3169,394.1211" style="stroke:#181818;stroke-width:1.0;"/><line style="stroke:#181818;stroke-width:1.0;" x1="603.54" x2="603.54" y1="378.8232" y2="399.4722"/><polygon fill="#181818" points="599.54,389.4722,603.54,399.4722,607.54,389.4722,603.54,393.4722" style="stroke:#181818;stroke-width:1.0;"/><line style="stroke:#181818;stroke-width:1.0;" x1="794.5664" x2="794.5664" y1="379.4722" y2="400.1211"/><polygon fill="#181818" points="790.5664,390.1211,794.5664,400.1211,798.5664,390.1211,794.5664,394.1211" style="stroke:#181818;stroke-width:1.0;"/><line style="stroke:#181818;stroke-width:1.0;" x1="131.658" x2="131.658" y1="298.7588" y2="331.2256"/><polygon fill="#181818" points="127.658,321.2256,131.658,331.2256,135.658,321.2256,131.658,325.2256" style="stroke:#181818;stroke-width:1.0;"/><line style="stroke:#181818;stroke-width:1.0;" x1="374.3169" x2="374.3169" y1="299.4077" y2="331.8745"/><polygon fill="#181818" points="370.3169,321.8745,374.3169,331.8745,378.3169,321.8745,374.3169,325.8745" style="stroke:#181818;stroke-width:1.0;"/><line style="stroke:#181818;stroke-width:1.0;" x1="603.54" x2="603.54" y1="298.7588" y2="331.2256"/><polygon fill="#181818" points="599.54,321.2256,603.54,331.2256,607.54,321.2256,603.54,325.2256" style="stroke:#181818;stroke-width:1.0;"/><line style="stroke:#181818;stroke-width:1.0;" x1="794.5664" x2="794.5664" y1="299.4077" y2="331.8745"/><polygon fill="#181818" points="790.5664,321.8745,794.5664,331.8745,798.5664,321.8745,794.5664,325.8745" style="stroke:#181818;stroke-width:1.0;"/><line style="stroke:#181818;stroke-width:1.0;" x1="243.3159" x2="287.7231" y1="286.7588" y2="286.7588"/><polygon fill="#181818" points="277.7231,282.7588,287.7231,286.7588,277.7231,290.7588,281.7231,286.7588" style="stroke:#181818;stroke-width:1.0;"/><line style="stroke:#181818;stroke-width:1.0;" x1="460.9106" x2="525.4971" y1="286.7588" y2="286.7588"/><polygon fill="#181818" points="515.4971,282.7588,525.4971,286.7588,515.4971,290.7588,519.4971,286.7588" style="stroke:#181818;stroke-width:1.0;"/><line style="stroke:#181818;stroke-width:1.0;" x1="681.583" x2="719.8992" y1="286.7588" y2="286.7588"/><polygon fill="#181818" points="709.8992,282.7588,719.8992,286.7588,709.8992,290.7588,713.8992,286.7588" style="stroke:#181818;stroke-width:1.0;"/><line style="stroke:#181818;stroke-width:1.0;" x1="478.7749" x2="478.7749" y1="254.7588" y2="259.7588"/><line style="stroke:#181818;stroke-width:1.0;" x1="478.7749" x2="131.658" y1="259.7588" y2="259.7588"/><line style="stroke:#181818;stroke-width:1.0;" x1="131.658" x2="131.658" y1="259.7588" y2="274.7588"/><polygon fill="#181818" points="127.658,264.7588,131.658,274.7588,135.658,264.7588,131.658,268.7588" style="stroke:#181818;stroke-width:1.0;"/><line style="stroke:#181818;stroke-width:1.0;" x1="869.2336" x2="922.5498" y1="286.7588" y2="286.7588"/><line style="stroke:#181818;stroke-width:1.0;" x1="922.5498" x2="922.5498" y1="286.7588" y2="425.1211"/><line style="stroke:#181818;stroke-width:1.0;" x1="922.5498" x2="478.7749" y1="425.1211" y2="425.1211"/><line style="stroke:#181818;stroke-width:1.0;" x1="478.7749" x2="478.7749" y1="425.1211" y2="440.1211"/><polygon fill="#181818" points="474.7749,430.1211,478.7749,440.1211,482.7749,430.1211,478.7749,434.1211" style="stroke:#181818;stroke-width:1.0;"/><line style="stroke:#181818;stroke-width:1.0;" x1="478.7749" x2="478.7749" y1="473.9199" y2="493.9199"/><polygon fill="#181818" points="474.7749,483.9199,478.7749,493.9199,482.7749,483.9199,478.7749,487.9199" style="stroke:#181818;stroke-width:1.0;"/><line style="stroke:#181818;stroke-width:1.0;" x1="478.7749" x2="478.7749" y1="527.7188" y2="547.7188"/><polygon fill="#181818" points="474.7749,537.7188,478.7749,547.7188,482.7749,537.7188,478.7749,541.7188" style="stroke:#181818;stroke-width:1.0;"/><line style="stroke:#181818;stroke-width:1.0;" x1="478.7749" x2="478.7749" y1="581.5176" y2="601.5176"/><polygon fill="#181818" points="474.7749,591.5176,478.7749,601.5176,482.7749,591.5176,478.7749,595.5176" style="stroke:#181818;stroke-width:1.0;"/><!--SRC=[lLIxZXD14CpdAveJakySGMe7w6G8JZ8WP23lcstlZcvUzCnOWZ_WBmWnCN-mFqQFrozEomakODFkhggkhjd9ayZOEeIIw2DnDXhjpHg2L-dE-8YC3XR1DoQRu5_vPfK_MuBE6azAfOoSbG-PW4tRvHdSk1Wu4uD5qC6lJLiOwwXIPWsNq-cgnCZ64K-dO2d1skZE42V872AWruPyKas1HBoXmj1CaALbWorTGUx8msN_LNUahnJ8DzF1tGPu3XULEYLpA_9aHkj-sn3lUd0KxMA-Av9l5Db4Wxpt_TRsMzqXjuF4VV-ZkVjl9unHnfT25rnaIkcnZBIhDUT03v9-yE97iGVlOVLk2GtwT1g25mVsDy7VftwDPOCc4QJCHUV2U_unHWdEMgdPyUfd55zCd1zIiK2hYntsHqZ1kRfMJL3c_cVTiHpK_gijUWyz3ZpYpd9K0AMi1C7rFwJogH145h_hdQNLvvDXRukvBsf9HwihJ2qAuW5gKYE2miRUzDzPR1L_gKLkpjNj3W6ds5mFBWxF27oG4ObvKrpyMuD-Fnh3pcKNHqEw2D4ShtEK1wcmah7_-bGVI9GDScoQgzcrf1AjIN-w-cc7Vblx1s7FuAakp7BDXMY-IyNDwoykHFKB]--></g></svg>