<svg xmlns="http://www.w3.org/2000/svg" xmlns:xlink="http://www.w3.org/1999/xlink" contentStyleType="text/css" height="797px" preserveAspectRatio="none" style="width:952px;height:797px;background:#FFFFFF;" version="1.1" viewBox="0 0 952 797" width="952px" zoomAndPan="magnify"><defs/><g><path d="M517.5,10 L517.5,18.4744 L497.5,22.4744 L517.5,26.4744 L517.5,34.9487 A0,0 0 0 0 517.5,34.9487 L676.5,34.9487 A0,0 0 0 0 676.5,34.9487 L676.5,20 L666.5,10 L517.5,10 A0,0 0 0 0 517.5,10 " fill="#FEFFDD" style="stroke:#181818;stroke-width:0.5;"/><path d="M666.5,10 L666.5,20 L676.5,20 L666.5,10 " fill="#FEFFDD" style="stroke:#181818;stroke-width:0.5;"/><text fill="#000000" font-family="sans-serif" font-size="13" lengthAdjust="spacing" textLength="138" x="523.5" y="27.1938">Importer la configuration</text><ellipse cx="487.5" cy="22.4744" fill="#222222" rx="10" ry="10" style="stroke:#222222;stroke-width:1.0;"/><polygon fill="#F1F1F1" points="62,54.9487,240,54.9487,252,67.5977,240,80.2466,62,80.2466,50,67.5977,62,54.9487" style="stroke:#181818;stroke-width:0.5;"/><text fill="#000000" font-family="sans-serif" font-size="11" lengthAdjust="spacing" textLength="30" x="155" y="90.5645">&#201;chec</text><text fill="#000000" font-family="sans-serif" font-size="11" font-weight="bold" lengthAdjust="spacing" textLength="59" x="62" y="65.2666">Supprimer</text><text fill="#000000" font-family="sans-serif" font-size="11" lengthAdjust="spacing" textLength="116" x="124" y="65.2666">les fichiers trop anciens</text><text fill="#000000" font-family="sans-serif" font-size="11" lengthAdjust="spacing" textLength="112" x="62" y="77.9155">du serveur d'archivage</text><rect fill="#F1F1F1" height="47.5977" rx="12.5" ry="12.5" style="stroke:#181818;stroke-width:0.5;" width="203" x="49.5" y="112.7134"/><text fill="#000000" font-family="sans-serif" font-size="12" lengthAdjust="spacing" textLength="183" x="59.5" y="133.9692">&#201;crire logs, impossible d'acc&#233;der</text><text fill="#000000" font-family="sans-serif" font-size="12" lengthAdjust="spacing" textLength="123" x="59.5" y="147.7681">au serveur d'archivage</text><rect fill="#F1F1F1" height="33.7988" rx="12.5" ry="12.5" style="stroke:#181818;stroke-width:0.5;" width="90" x="106" y="180.96"/><text fill="#000000" font-family="sans-serif" font-size="12" lengthAdjust="spacing" textLength="70" x="116" y="202.2158">Envoyer mail</text><ellipse cx="151" cy="245.4077" fill="none" rx="10" ry="10" style="stroke:#222222;stroke-width:1.5;"/><line style="stroke:#222222;stroke-width:2.5;" x1="144.8128" x2="157.1872" y1="239.2205" y2="251.5949"/><line style="stroke:#222222;stroke-width:2.5;" x1="157.1872" x2="144.8128" y1="239.2205" y2="251.5949"/><polygon fill="#F1F1F1" points="319,55.5977,429,55.5977,441,67.5977,429,79.5977,319,79.5977,307,67.5977,319,55.5977" style="stroke:#181818;stroke-width:0.5;"/><text fill="#000000" font-family="sans-serif" font-size="11" lengthAdjust="spacing" textLength="30" x="378" y="89.9155">&#201;chec</text><text fill="#000000" font-family="sans-serif" font-size="11" font-weight="bold" lengthAdjust="spacing" textLength="67" x="319" y="71.5911">T&#233;l&#233;charger</text><text fill="#000000" font-family="sans-serif" font-size="11" lengthAdjust="spacing" textLength="40" x="389" y="71.5911">l'archive</text><rect fill="#F1F1F1" height="47.5977" rx="12.5" ry="12.5" style="stroke:#181818;stroke-width:0.5;" width="203" x="272.5" y="112.0645"/><text fill="#000000" font-family="sans-serif" font-size="12" lengthAdjust="spacing" textLength="183" x="282.5" y="133.3203">&#201;crire logs, impossible d'acc&#233;der</text><text fill="#000000" font-family="sans-serif" font-size="12" lengthAdjust="spacing" textLength="54" x="282.5" y="147.1191">&#224; l'archive</text><rect fill="#F1F1F1" height="33.7988" rx="12.5" ry="12.5" style="stroke:#181818;stroke-width:0.5;" width="90" x="329" y="180.311"/><text fill="#000000" font-family="sans-serif" font-size="12" lengthAdjust="spacing" textLength="70" x="339" y="201.5669">Envoyer mail</text><ellipse cx="374" cy="244.7588" fill="none" rx="10" ry="10" style="stroke:#222222;stroke-width:1.5;"/><line style="stroke:#222222;stroke-width:2.5;" x1="367.8128" x2="380.1872" y1="238.5716" y2="250.946"/><line style="stroke:#222222;stroke-width:2.5;" x1="380.1872" x2="367.8128" y1="238.5716" y2="250.946"/><polygon fill="#F1F1F1" points="514.5,55.5977,640.5,55.5977,652.5,67.5977,640.5,79.5977,514.5,79.5977,502.5,67.5977,514.5,55.5977" style="stroke:#181818;stroke-width:0.5;"/><text fill="#000000" font-family="sans-serif" font-size="11" lengthAdjust="spacing" textLength="30" x="581.5" y="89.9155">&#201;chec</text><text fill="#000000" font-family="sans-serif" font-size="11" font-weight="bold" lengthAdjust="spacing" textLength="83" x="514.5" y="71.5911">D&#233;compresser</text><text fill="#000000" font-family="sans-serif" font-size="11" lengthAdjust="spacing" textLength="40" x="600.5" y="71.5911">l'archive</text><rect fill="#F1F1F1" height="47.5977" rx="12.5" ry="12.5" style="stroke:#181818;stroke-width:0.5;" width="164" x="495.5" y="112.0645"/><text fill="#000000" font-family="sans-serif" font-size="12" lengthAdjust="spacing" textLength="144" x="505.5" y="133.3203">&#201;crire logs, impossible de</text><text fill="#000000" font-family="sans-serif" font-size="12" lengthAdjust="spacing" textLength="128" x="505.5" y="147.1191">d&#233;compresser l'archive</text><rect fill="#F1F1F1" height="33.7988" rx="12.5" ry="12.5" style="stroke:#181818;stroke-width:0.5;" width="90" x="532.5" y="180.311"/><text fill="#000000" font-family="sans-serif" font-size="12" lengthAdjust="spacing" textLength="70" x="542.5" y="201.5669">Envoyer mail</text><ellipse cx="577.5" cy="244.7588" fill="none" rx="10" ry="10" style="stroke:#222222;stroke-width:1.5;"/><line style="stroke:#222222;stroke-width:2.5;" x1="571.3128" x2="583.6872" y1="238.5716" y2="250.946"/><line style="stroke:#222222;stroke-width:2.5;" x1="583.6872" x2="571.3128" y1="238.5716" y2="250.946"/><polygon fill="#F1F1F1" points="691.5,55.5977,863.5,55.5977,875.5,67.5977,863.5,79.5977,691.5,79.5977,679.5,67.5977,691.5,55.5977" style="stroke:#181818;stroke-width:0.5;"/><text fill="#000000" font-family="sans-serif" font-size="11" lengthAdjust="spacing" textLength="19" x="781.5" y="89.9155">Non</text><text fill="#000000" font-family="sans-serif" font-size="11" lengthAdjust="spacing" textLength="172" x="691.5" y="71.5911">Un seul fichier SQL dans l'archive ?</text><rect fill="#F1F1F1" height="47.5977" rx="12.5" ry="12.5" style="stroke:#181818;stroke-width:0.5;" width="190" x="682.5" y="112.0645"/><text fill="#000000" font-family="sans-serif" font-size="12" lengthAdjust="spacing" textLength="170" x="692.5" y="133.3203">&#201;crire logs, mauvaise structure</text><text fill="#000000" font-family="sans-serif" font-size="12" lengthAdjust="spacing" textLength="48" x="692.5" y="147.1191">d'archive</text><rect fill="#F1F1F1" height="33.7988" rx="12.5" ry="12.5" style="stroke:#181818;stroke-width:0.5;" width="90" x="732.5" y="180.311"/><text fill="#000000" font-family="sans-serif" font-size="12" lengthAdjust="spacing" textLength="70" x="742.5" y="201.5669">Envoyer mail</text><ellipse cx="777.5" cy="244.7588" fill="none" rx="10" ry="10" style="stroke:#222222;stroke-width:1.5;"/><line style="stroke:#222222;stroke-width:2.5;" x1="771.3128" x2="783.6872" y1="238.5716" y2="250.946"/><line style="stroke:#222222;stroke-width:2.5;" x1="783.6872" x2="771.3128" y1="238.5716" y2="250.946"/><rect fill="#F1F1F1" height="33.7988" rx="12.5" ry="12.5" style="stroke:#181818;stroke-width:0.5;" width="143" x="416" y="275.4077"/><text fill="#000000" font-family="sans-serif" font-size="12" lengthAdjust="spacing" textLength="123" x="426" y="296.6636">Supprimer l'archive zip</text><polygon fill="#F1F1F1" points="32,329.2065,230,329.2065,242,341.2065,230,353.2065,32,353.2065,20,341.2065,32,329.2065" style="stroke:#181818;stroke-width:0.5;"/><text fill="#000000" font-family="sans-serif" font-size="11" lengthAdjust="spacing" textLength="30" x="135" y="363.5244">&#201;chec</text><text fill="#000000" font-family="sans-serif" font-size="11" font-weight="bold" lengthAdjust="spacing" textLength="45" x="32" y="345.2">Calculer</text><text fill="#000000" font-family="sans-serif" font-size="11" lengthAdjust="spacing" textLength="150" x="80" y="345.2">la somme de contr&#244;le du fichier</text><rect fill="#F1F1F1" height="47.5977" rx="12.5" ry="12.5" style="stroke:#181818;stroke-width:0.5;" width="186" x="38" y="385.6733"/><text fill="#000000" font-family="sans-serif" font-size="12" lengthAdjust="spacing" textLength="144" x="48" y="406.9292">&#201;crire logs, impossible de</text><text fill="#000000" font-family="sans-serif" font-size="12" lengthAdjust="spacing" textLength="166" x="48" y="420.728">calculer la somme de contr&#244;le</text><rect fill="#F1F1F1" height="33.7988" rx="12.5" ry="12.5" style="stroke:#181818;stroke-width:0.5;" width="90" x="86" y="453.9199"/><text fill="#000000" font-family="sans-serif" font-size="12" lengthAdjust="spacing" textLength="70" x="96" y="475.1758">Envoyer mail</text><ellipse cx="131" cy="518.3677" fill="none" rx="10" ry="10" style="stroke:#222222;stroke-width:1.5;"/><line style="stroke:#222222;stroke-width:2.5;" x1="124.8128" x2="137.1872" y1="512.1805" y2="524.5549"/><line style="stroke:#222222;stroke-width:2.5;" x1="137.1872" x2="124.8128" y1="512.1805" y2="524.5549"/><polygon fill="#F1F1F1" points="303,328.5576,446,328.5576,458,341.2065,446,353.8555,303,353.8555,291,341.2065,303,328.5576" style="stroke:#181818;stroke-width:0.5;"/><text fill="#000000" font-family="sans-serif" font-size="11" lengthAdjust="spacing" textLength="16" x="378.5" y="364.1733">Oui</text><text fill="#000000" font-family="sans-serif" font-size="11" lengthAdjust="spacing" textLength="124" x="303" y="338.8755">La somme de contr&#244;le est</text><text fill="#000000" font-family="sans-serif" font-size="11" lengthAdjust="spacing" textLength="143" x="303" y="351.5244">la m&#234;me que pr&#233;c&#233;demment ?</text><rect fill="#F1F1F1" height="47.5977" rx="12.5" ry="12.5" style="stroke:#181818;stroke-width:0.5;" width="225" x="262" y="386.3223"/><text fill="#000000" font-family="sans-serif" font-size="12" lengthAdjust="spacing" textLength="131" x="272" y="407.5781">&#201;crire logs, le fichier est</text><text fill="#000000" font-family="sans-serif" font-size="12" lengthAdjust="spacing" textLength="205" x="272" y="421.377">le m&#234;me qu'&#224; la derni&#232;re sauvegarde</text><rect fill="#F1F1F1" height="33.7988" rx="12.5" ry="12.5" style="stroke:#181818;stroke-width:0.5;" width="90" x="329.5" y="454.5688"/><text fill="#000000" font-family="sans-serif" font-size="12" lengthAdjust="spacing" textLength="70" x="339.5" y="475.8247">Envoyer mail</text><ellipse cx="374.5" cy="519.0166" fill="none" rx="10" ry="10" style="stroke:#222222;stroke-width:1.5;"/><line style="stroke:#222222;stroke-width:2.5;" x1="368.3128" x2="380.6872" y1="512.8294" y2="525.2038"/><line style="stroke:#222222;stroke-width:2.5;" x1="380.6872" x2="368.3128" y1="512.8294" y2="525.2038"/><polygon fill="#F1F1F1" points="538,329.2065,670,329.2065,682,341.2065,670,353.2065,538,353.2065,526,341.2065,538,329.2065" style="stroke:#181818;stroke-width:0.5;"/><text fill="#000000" font-family="sans-serif" font-size="11" lengthAdjust="spacing" textLength="30" x="608" y="363.5244">&#201;chec</text><text fill="#000000" font-family="sans-serif" font-size="11" font-weight="bold" lengthAdjust="spacing" textLength="47" x="538" y="345.2">Archiver</text><text fill="#000000" font-family="sans-serif" font-size="11" lengthAdjust="spacing" textLength="82" x="588" y="345.2">le nouveau dump</text><text fill="#000000" font-family="sans-serif" font-size="11" lengthAdjust="spacing" textLength="19" x="507" y="338.8755">Non</text><rect fill="#F1F1F1" height="47.5977" rx="12.5" ry="12.5" style="stroke:#181818;stroke-width:0.5;" width="147" x="530.5" y="385.6733"/><text fill="#000000" font-family="sans-serif" font-size="12" lengthAdjust="spacing" textLength="127" x="540.5" y="406.9292">&#201;crire logs, impossible</text><text fill="#000000" font-family="sans-serif" font-size="12" lengthAdjust="spacing" textLength="100" x="540.5" y="420.728">d'archiver le dump</text><rect fill="#F1F1F1" height="33.7988" rx="12.5" ry="12.5" style="stroke:#181818;stroke-width:0.5;" width="90" x="559" y="453.9199"/><text fill="#000000" font-family="sans-serif" font-size="12" lengthAdjust="spacing" textLength="70" x="569" y="475.1758">Envoyer mail</text><ellipse cx="604" cy="518.3677" fill="none" rx="10" ry="10" style="stroke:#222222;stroke-width:1.5;"/><line style="stroke:#222222;stroke-width:2.5;" x1="597.8128" x2="610.1872" y1="512.1805" y2="524.5549"/><line style="stroke:#222222;stroke-width:2.5;" x1="610.1872" x2="597.8128" y1="512.1805" y2="524.5549"/><polygon fill="#F1F1F1" points="739.5,328.5576,867.5,328.5576,879.5,341.2065,867.5,353.8555,739.5,353.8555,727.5,341.2065,739.5,328.5576" style="stroke:#181818;stroke-width:0.5;"/><text fill="#000000" font-family="sans-serif" font-size="11" lengthAdjust="spacing" textLength="30" x="807.5" y="364.1733">&#201;chec</text><text fill="#000000" font-family="sans-serif" font-size="11" font-weight="bold" lengthAdjust="spacing" textLength="37" x="739.5" y="338.8755">Copier</text><text fill="#000000" font-family="sans-serif" font-size="11" lengthAdjust="spacing" textLength="88" x="779.5" y="338.8755">la sauvegarde sur</text><text fill="#000000" font-family="sans-serif" font-size="11" lengthAdjust="spacing" textLength="108" x="739.5" y="351.5244">le serveur d'archivage</text><rect fill="#F1F1F1" height="47.5977" rx="12.5" ry="12.5" style="stroke:#181818;stroke-width:0.5;" width="203" x="702" y="386.3223"/><text fill="#000000" font-family="sans-serif" font-size="12" lengthAdjust="spacing" textLength="183" x="712" y="407.5781">&#201;crire logs, impossible d'acc&#233;der</text><text fill="#000000" font-family="sans-serif" font-size="12" lengthAdjust="spacing" textLength="123" x="712" y="421.377">au serveur d'archivage</text><rect fill="#F1F1F1" height="33.7988" rx="12.5" ry="12.5" style="stroke:#181818;stroke-width:0.5;" width="90" x="758.5" y="454.5688"/><text fill="#000000" font-family="sans-serif" font-size="12" lengthAdjust="spacing" textLength="70" x="768.5" y="475.8247">Envoyer mail</text><ellipse cx="803.5" cy="519.0166" fill="none" rx="10" ry="10" style="stroke:#222222;stroke-width:1.5;"/><line style="stroke:#222222;stroke-width:2.5;" x1="797.3128" x2="809.6872" y1="512.8294" y2="525.2038"/><line style="stroke:#222222;stroke-width:2.5;" x1="809.6872" x2="797.3128" y1="512.8294" y2="525.2038"/><rect fill="#F1F1F1" height="33.7988" rx="12.5" ry="12.5" style="stroke:#181818;stroke-width:0.5;" width="161" x="407" y="549.0166"/><text fill="#000000" font-family="sans-serif" font-size="12" lengthAdjust="spacing" textLength="141" x="417" y="570.2725">Supprimer l'archive locale</text><rect fill="#F1F1F1" height="33.7988" rx="12.5" ry="12.5" style="stroke:#181818;stroke-width:0.5;" width="272" x="351.5" y="602.8154"/><text fill="#000000" font-family="sans-serif" font-size="12" lengthAdjust="spacing" textLength="252" x="361.5" y="624.0713">Actualiser la somme de contr&#244;le sauvegard&#233;e</text><rect fill="#F1F1F1" height="33.7988" rx="12.5" ry="12.5" style="stroke:#181818;stroke-width:0.5;" width="145" x="415" y="656.6143"/><text fill="#000000" font-family="sans-serif" font-size="12" lengthAdjust="spacing" textLength="125" x="425" y="677.8701">&#201;crire le log de succ&#232;s</text><rect fill="#F1F1F1" height="33.7988" rx="12.5" ry="12.5" style="stroke:#181818;stroke-width:0.5;" width="163" x="406" y="710.4131"/><text fill="#000000" font-family="sans-serif" font-size="12" lengthAdjust="spacing" textLength="143" x="416" y="731.6689">Envoyer le mail de succ&#232;s</text><ellipse cx="487.5" cy="775.2119" fill="none" rx="11" ry="11" style="stroke:#222222;stroke-width:1.0;"/><ellipse cx="487.5" cy="775.2119" fill="#222222" rx="6" ry="6" style="stroke:#222222;stroke-width:1.0;"/><line style="stroke:#181818;stroke-width:1.0;" x1="151" x2="151" y1="160.311" y2="180.96"/><polygon fill="#181818" points="147,170.96,151,180.96,155,170.96,151,174.96" style="stroke:#181818;stroke-width:1.0;"/><line style="stroke:#181818;stroke-width:1.0;" x1="151" x2="151" y1="214.7588" y2="235.4077"/><polygon fill="#181818" points="147,225.4077,151,235.4077,155,225.4077,151,229.4077" style="stroke:#181818;stroke-width:1.0;"/><line style="stroke:#181818;stroke-width:1.0;" x1="374" x2="374" y1="159.6621" y2="180.311"/><polygon fill="#181818" points="370,170.311,374,180.311,378,170.311,374,174.311" style="stroke:#181818;stroke-width:1.0;"/><line style="stroke:#181818;stroke-width:1.0;" x1="374" x2="374" y1="214.1099" y2="234.7588"/><polygon fill="#181818" points="370,224.7588,374,234.7588,378,224.7588,374,228.7588" style="stroke:#181818;stroke-width:1.0;"/><line style="stroke:#181818;stroke-width:1.0;" x1="577.5" x2="577.5" y1="159.6621" y2="180.311"/><polygon fill="#181818" points="573.5,170.311,577.5,180.311,581.5,170.311,577.5,174.311" style="stroke:#181818;stroke-width:1.0;"/><line style="stroke:#181818;stroke-width:1.0;" x1="577.5" x2="577.5" y1="214.1099" y2="234.7588"/><polygon fill="#181818" points="573.5,224.7588,577.5,234.7588,581.5,224.7588,577.5,228.7588" style="stroke:#181818;stroke-width:1.0;"/><line style="stroke:#181818;stroke-width:1.0;" x1="777.5" x2="777.5" y1="159.6621" y2="180.311"/><polygon fill="#181818" points="773.5,170.311,777.5,180.311,781.5,170.311,777.5,174.311" style="stroke:#181818;stroke-width:1.0;"/><line style="stroke:#181818;stroke-width:1.0;" x1="777.5" x2="777.5" y1="214.1099" y2="234.7588"/><polygon fill="#181818" points="773.5,224.7588,777.5,234.7588,781.5,224.7588,777.5,228.7588" style="stroke:#181818;stroke-width:1.0;"/><line style="stroke:#181818;stroke-width:1.0;" x1="151" x2="151" y1="80.2466" y2="112.7134"/><polygon fill="#181818" points="147,102.7134,151,112.7134,155,102.7134,151,106.7134" style="stroke:#181818;stroke-width:1.0;"/><line style="stroke:#181818;stroke-width:1.0;" x1="374" x2="374" y1="79.5977" y2="112.0645"/><polygon fill="#181818" points="370,102.0645,374,112.0645,378,102.0645,374,106.0645" style="stroke:#181818;stroke-width:1.0;"/><line style="stroke:#181818;stroke-width:1.0;" x1="577.5" x2="577.5" y1="79.5977" y2="112.0645"/><polygon fill="#181818" points="573.5,102.0645,577.5,112.0645,581.5,102.0645,577.5,106.0645" style="stroke:#181818;stroke-width:1.0;"/><line style="stroke:#181818;stroke-width:1.0;" x1="777.5" x2="777.5" y1="79.5977" y2="112.0645"/><polygon fill="#181818" points="773.5,102.0645,777.5,112.0645,781.5,102.0645,777.5,106.0645" style="stroke:#181818;stroke-width:1.0;"/><line style="stroke:#181818;stroke-width:1.0;" x1="252" x2="307" y1="67.5977" y2="67.5977"/><polygon fill="#181818" points="297,63.5977,307,67.5977,297,71.5977,301,67.5977" style="stroke:#181818;stroke-width:1.0;"/><line style="stroke:#181818;stroke-width:1.0;" x1="441" x2="502.5" y1="67.5977" y2="67.5977"/><polygon fill="#181818" points="492.5,63.5977,502.5,67.5977,492.5,71.5977,496.5,67.5977" style="stroke:#181818;stroke-width:1.0;"/><line style="stroke:#181818;stroke-width:1.0;" x1="652.5" x2="679.5" y1="67.5977" y2="67.5977"/><polygon fill="#181818" points="669.5,63.5977,679.5,67.5977,669.5,71.5977,673.5,67.5977" style="stroke:#181818;stroke-width:1.0;"/><line style="stroke:#181818;stroke-width:1.0;" x1="487.5" x2="487.5" y1="32.4744" y2="39.9487"/><line style="stroke:#181818;stroke-width:1.0;" x1="487.5" x2="151" y1="39.9487" y2="39.9487"/><line style="stroke:#181818;stroke-width:1.0;" x1="151" x2="151" y1="39.9487" y2="54.9487"/><polygon fill="#181818" points="147,44.9487,151,54.9487,155,44.9487,151,48.9487" style="stroke:#181818;stroke-width:1.0;"/><line style="stroke:#181818;stroke-width:1.0;" x1="875.5" x2="910.5" y1="67.5977" y2="67.5977"/><line style="stroke:#181818;stroke-width:1.0;" x1="910.5" x2="910.5" y1="67.5977" y2="260.4077"/><line style="stroke:#181818;stroke-width:1.0;" x1="910.5" x2="487.5" y1="260.4077" y2="260.4077"/><line style="stroke:#181818;stroke-width:1.0;" x1="487.5" x2="487.5" y1="260.4077" y2="275.4077"/><polygon fill="#181818" points="483.5,265.4077,487.5,275.4077,491.5,265.4077,487.5,269.4077" style="stroke:#181818;stroke-width:1.0;"/><line style="stroke:#181818;stroke-width:1.0;" x1="131" x2="131" y1="433.271" y2="453.9199"/><polygon fill="#181818" points="127,443.9199,131,453.9199,135,443.9199,131,447.9199" style="stroke:#181818;stroke-width:1.0;"/><line style="stroke:#181818;stroke-width:1.0;" x1="131" x2="131" y1="487.7188" y2="508.3677"/><polygon fill="#181818" points="127,498.3677,131,508.3677,135,498.3677,131,502.3677" style="stroke:#181818;stroke-width:1.0;"/><line style="stroke:#181818;stroke-width:1.0;" x1="374.5" x2="374.5" y1="433.9199" y2="454.5688"/><polygon fill="#181818" points="370.5,444.5688,374.5,454.5688,378.5,444.5688,374.5,448.5688" style="stroke:#181818;stroke-width:1.0;"/><line style="stroke:#181818;stroke-width:1.0;" x1="374.5" x2="374.5" y1="488.3677" y2="509.0166"/><polygon fill="#181818" points="370.5,499.0166,374.5,509.0166,378.5,499.0166,374.5,503.0166" style="stroke:#181818;stroke-width:1.0;"/><line style="stroke:#181818;stroke-width:1.0;" x1="604" x2="604" y1="433.271" y2="453.9199"/><polygon fill="#181818" points="600,443.9199,604,453.9199,608,443.9199,604,447.9199" style="stroke:#181818;stroke-width:1.0;"/><line style="stroke:#181818;stroke-width:1.0;" x1="604" x2="604" y1="487.7188" y2="508.3677"/><polygon fill="#181818" points="600,498.3677,604,508.3677,608,498.3677,604,502.3677" style="stroke:#181818;stroke-width:1.0;"/><line style="stroke:#181818;stroke-width:1.0;" x1="803.5" x2="803.5" y1="433.9199" y2="454.5688"/><polygon fill="#181818" points="799.5,444.5688,803.5,454.5688,807.5,444.5688,803.5,448.5688" style="stroke:#181818;stroke-width:1.0;"/><line style="stroke:#181818;stroke-width:1.0;" x1="803.5" x2="803.5" y1="488.3677" y2="509.0166"/><polygon fill="#181818" points="799.5,499.0166,803.5,509.0166,807.5,499.0166,803.5,503.0166" style="stroke:#181818;stroke-width:1.0;"/><line style="stroke:#181818;stroke-width:1.0;" x1="131" x2="131" y1="353.2065" y2="385.6733"/><polygon fill="#181818" points="127,375.6733,131,385.6733,135,375.6733,131,379.6733" style="stroke:#181818;stroke-width:1.0;"/><line style="stroke:#181818;stroke-width:1.0;" x1="374.5" x2="374.5" y1="353.8555" y2="386.3223"/><polygon fill="#181818" points="370.5,376.3223,374.5,386.3223,378.5,376.3223,374.5,380.3223" style="stroke:#181818;stroke-width:1.0;"/><line style="stroke:#181818;stroke-width:1.0;" x1="604" x2="604" y1="353.2065" y2="385.6733"/><polygon fill="#181818" points="600,375.6733,604,385.6733,608,375.6733,604,379.6733" style="stroke:#181818;stroke-width:1.0;"/><line style="stroke:#181818;stroke-width:1.0;" x1="803.5" x2="803.5" y1="353.8555" y2="386.3223"/><polygon fill="#181818" points="799.5,376.3223,803.5,386.3223,807.5,376.3223,803.5,380.3223" style="stroke:#181818;stroke-width:1.0;"/><line style="stroke:#181818;stroke-width:1.0;" x1="242" x2="291" y1="341.2065" y2="341.2065"/><polygon fill="#181818" points="281,337.2065,291,341.2065,281,345.2065,285,341.2065" style="stroke:#181818;stroke-width:1.0;"/><line style="stroke:#181818;stroke-width:1.0;" x1="458" x2="526" y1="341.2065" y2="341.2065"/><polygon fill="#181818" points="516,337.2065,526,341.2065,516,345.2065,520,341.2065" style="stroke:#181818;stroke-width:1.0;"/><line style="stroke:#181818;stroke-width:1.0;" x1="682" x2="727.5" y1="341.2065" y2="341.2065"/><polygon fill="#181818" points="717.5,337.2065,727.5,341.2065,717.5,345.2065,721.5,341.2065" style="stroke:#181818;stroke-width:1.0;"/><line style="stroke:#181818;stroke-width:1.0;" x1="487.5" x2="487.5" y1="309.2065" y2="314.2065"/><line style="stroke:#181818;stroke-width:1.0;" x1="487.5" x2="131" y1="314.2065" y2="314.2065"/><line style="stroke:#181818;stroke-width:1.0;" x1="131" x2="131" y1="314.2065" y2="329.2065"/><polygon fill="#181818" points="127,319.2065,131,329.2065,135,319.2065,131,323.2065" style="stroke:#181818;stroke-width:1.0;"/><line style="stroke:#181818;stroke-width:1.0;" x1="879.5" x2="940" y1="341.2065" y2="341.2065"/><line style="stroke:#181818;stroke-width:1.0;" x1="940" x2="940" y1="341.2065" y2="534.0166"/><line style="stroke:#181818;stroke-width:1.0;" x1="940" x2="487.5" y1="534.0166" y2="534.0166"/><line style="stroke:#181818;stroke-width:1.0;" x1="487.5" x2="487.5" y1="534.0166" y2="549.0166"/><polygon fill="#181818" points="483.5,539.0166,487.5,549.0166,491.5,539.0166,487.5,543.0166" style="stroke:#181818;stroke-width:1.0;"/><line style="stroke:#181818;stroke-width:1.0;" x1="487.5" x2="487.5" y1="582.8154" y2="602.8154"/><polygon fill="#181818" points="483.5,592.8154,487.5,602.8154,491.5,592.8154,487.5,596.8154" style="stroke:#181818;stroke-width:1.0;"/><line style="stroke:#181818;stroke-width:1.0;" x1="487.5" x2="487.5" y1="636.6143" y2="656.6143"/><polygon fill="#181818" points="483.5,646.6143,487.5,656.6143,491.5,646.6143,487.5,650.6143" style="stroke:#181818;stroke-width:1.0;"/><line style="stroke:#181818;stroke-width:1.0;" x1="487.5" x2="487.5" y1="690.4131" y2="710.4131"/><polygon fill="#181818" points="483.5,700.4131,487.5,710.4131,491.5,700.4131,487.5,704.4131" style="stroke:#181818;stroke-width:1.0;"/><line style="stroke:#181818;stroke-width:1.0;" x1="487.5" x2="487.5" y1="744.2119" y2="764.2119"/><polygon fill="#181818" points="483.5,754.2119,487.5,764.2119,491.5,754.2119,487.5,758.2119" style="stroke:#181818;stroke-width:1.0;"/><!--SRC=[pPHDRXD148NtVOfYvSJY1Cu2HIQBI1486TWtFUMP4lr7LRUbS0DkmJ9cpGtcOjHuCdOYcSWX6sOtqzMllwhtUcQlCjisMAY2dv4BEUklrv2YaQyKisKRO9bYGuLIl8hDgjnwXCvJH6EaM2ucfeB0r7Pb0TSX9ox8u2su5DVKLhR3LcDe3MVp-Qhcp1IGvtFmAB0crn6oGE6KmKP76CKq5GHvWvMXcLdMaerjyHnAXn7E-X-kGtTkG9-5lZ0nWa-jl0RIyqNeYpBgHkVwROEyAxH79Iz6aQkuIRTA7IpvyHF6ng0N7Aa_zblVRrrdkHt9xnLUXjJ_F0YT2F9MALB8Z28l0i5TGVDGxPaidwBEi_h9G5Xzk876HZd8m9i9wbsAHuc2hHjBWY25gokLxx5E0z5GherPx1FruEJlb2-cn2sjTzMFqx8WAOIX_o6TXVlVmp3grCG_3T7TwnzNFscMDqUvK8fHpT3_qfLl5I6p-ZN4HqjZEOptVQMZhAenkJDe3HNwQTAR3V6pUYH7wkzqawWRs5fkdeRUkGc7I5wECnylDCIa8dhNcXhoiyRvs7c6dJ4XdtWlbYdJtk9z7o2LZGhz3_-I9zBgasP8joykzGvOJ_AtC1rQwxT3_PvtXmoxXfNpJdHjmXWSLv97Y_hZJjdy0G00]--></g></svg>